<svg width="30" height="30" viewBox="0 0 30 30" fill="none" xmlns="http://www.w3.org/2000/svg">
<path d="M24.9424 11.0897C24.9424 10.7051 24.9424 10.4487 24.9424 10.1922C24.6834 6.08968 21.446 2.75635 17.3021 2.49994C16.5251 2.49994 15.7481 2.49994 15.1007 2.49994C13.1582 2.49994 10.4388 2.75635 8.62584 2.88455C6.81289 3.01276 5.51792 4.29481 5.38843 5.96148C5.25893 8.01276 4.99994 11.9871 4.99994 14.9358C4.99994 17.7563 5.25893 21.7307 5.38843 23.9102C5.51792 25.5769 6.81289 26.9871 8.49634 27.1153C10.3093 27.2435 13.0287 27.4999 14.9712 27.4999C16.9136 27.4999 19.633 27.2435 21.446 27.1153C23.1294 26.9871 24.4244 25.5769 24.5539 23.9102C24.6834 21.8589 24.9424 17.8846 24.9424 14.9358C25.0719 13.9102 24.9424 12.6281 24.9424 11.0897ZM16.2661 19.8076H14.7122V21.3461C14.7122 21.8589 14.3237 22.3717 13.6762 22.3717C13.0287 22.3717 12.6402 21.9871 12.6402 21.3461V19.8076H11.0863C10.5683 19.8076 10.0503 19.423 10.0503 18.782C10.0503 18.141 10.4388 17.7563 11.0863 17.7563H12.6402V16.2179C12.6402 15.7051 13.0287 15.1922 13.6762 15.1922C14.3237 15.1922 14.7122 15.5769 14.7122 16.2179V17.7563H16.2661C16.7841 17.7563 17.3021 18.141 17.3021 18.782C17.3021 19.423 16.7841 19.8076 16.2661 19.8076ZM18.8561 10.064C17.9496 10.064 17.3021 9.29481 17.3021 8.52558V4.42302C20.2805 4.67943 22.7409 6.98712 22.9999 10.064H18.8561Z" fill="black"/>
</svg>
