<svg width="30" height="30" viewBox="0 0 30 30" fill="none" xmlns="http://www.w3.org/2000/svg">
<g filter="url(#filter0_ii_164_25)">
<path d="M11.25 20C11.25 20.6904 10.6904 21.25 10 21.25C9.30964 21.25 8.75 20.6904 8.75 20V13.75C8.75 13.0596 9.30964 12.5 10 12.5C10.6904 12.5 11.25 13.0596 11.25 13.75V20ZM16.25 20C16.25 20.6904 15.6904 21.25 15 21.25C14.3096 21.25 13.75 20.6904 13.75 20V10C13.75 9.30964 14.3096 8.75 15 8.75C15.6904 8.75 16.25 9.30964 16.25 10V20ZM21.25 20C21.25 20.6904 20.6904 21.25 20 21.25C19.3096 21.25 18.75 20.6904 18.75 20V17.5C18.75 16.8096 19.3096 16.25 20 16.25C20.6904 16.25 21.25 16.8096 21.25 17.5V20ZM23.75 23.75H6.25V6.25H23.75V23.875M23.75 3.75H6.25C4.875 3.75 3.75 4.875 3.75 6.25V23.75C3.75 25.125 4.875 26.25 6.25 26.25H23.75C25.125 26.25 26.25 25.125 26.25 23.75V6.25C26.25 4.875 25.125 3.75 23.75 3.75Z" fill="white"/>
</g>
<defs>
<filter id="filter0_ii_164_25" x="-1" y="0" width="32" height="31" filterUnits="userSpaceOnUse" color-interpolation-filters="sRGB">
<feFlood flood-opacity="0" result="BackgroundImageFix"/>
<feBlend mode="normal" in="SourceGraphic" in2="BackgroundImageFix" result="shape"/>
<feColorMatrix in="SourceAlpha" type="matrix" values="0 0 0 0 0 0 0 0 0 0 0 0 0 0 0 0 0 0 127 0" result="hardAlpha"/>
<feOffset dx="-1" dy="1"/>
<feGaussianBlur stdDeviation="1"/>
<feComposite in2="hardAlpha" operator="arithmetic" k2="-1" k3="1"/>
<feColorMatrix type="matrix" values="0 0 0 0 0.156863 0 0 0 0 0.0980392 0 0 0 0 0.0627451 0 0 0 0.3 0"/>
<feBlend mode="normal" in2="shape" result="effect1_innerShadow_164_25"/>
<feColorMatrix in="SourceAlpha" type="matrix" values="0 0 0 0 0 0 0 0 0 0 0 0 0 0 0 0 0 0 127 0" result="hardAlpha"/>
<feOffset dx="1" dy="1"/>
<feGaussianBlur stdDeviation="0.5"/>
<feComposite in2="hardAlpha" operator="arithmetic" k2="-1" k3="1"/>
<feColorMatrix type="matrix" values="0 0 0 0 0.7 0 0 0 0 0.7 0 0 0 0 0.7 0 0 0 0.25 0"/>
<feBlend mode="normal" in2="effect1_innerShadow_164_25" result="effect2_innerShadow_164_25"/>
</filter>
</defs>
</svg>
