<svg width="30" height="30" viewBox="0 0 30 30" fill="none" xmlns="http://www.w3.org/2000/svg">
<path fill-rule="evenodd" clip-rule="evenodd" d="M6.34615 7.4081C6.34615 5.48635 7.92464 3.92847 9.8718 3.92847H15C15.531 3.92847 15.9615 4.35335 15.9615 4.87746C15.9615 5.40157 15.531 5.82645 15 5.82645H9.8718C8.98672 5.82645 8.26923 6.53458 8.26923 7.4081V8.67341C8.26923 9.19753 7.83874 9.6224 7.30769 9.6224C6.77665 9.6224 6.34615 9.19753 6.34615 8.67341V7.4081ZM7.30769 20.3776C7.83874 20.3776 8.26923 20.8025 8.26923 21.3266V22.5919C8.26923 23.4654 8.98672 24.1736 9.8718 24.1736H15C15.531 24.1736 15.9615 24.5984 15.9615 25.1226C15.9615 25.6467 15.531 26.0715 15 26.0715H9.8718C7.92464 26.0715 6.34615 24.5137 6.34615 22.5919V21.3266C6.34615 20.8025 6.77665 20.3776 7.30769 20.3776Z" fill="white"/>
<path fill-rule="evenodd" clip-rule="evenodd" d="M15.9615 5.98272C15.9615 4.88113 17.074 4.11694 18.1207 4.49953L24.531 6.8427C25.1596 7.0725 25.5769 7.66423 25.5769 8.32589V21.6741C25.5769 22.3357 25.1596 22.9275 24.531 23.1573L18.1207 25.5005C17.074 25.8831 15.9615 25.1189 15.9615 24.0173V5.98272ZM18.7886 2.7197C16.4859 1.878 14.0385 3.55923 14.0385 5.98272V24.0173C14.0385 26.4408 16.4859 28.122 18.7886 27.2803L25.1989 24.9371C26.5819 24.4315 27.5 23.1297 27.5 21.6741V8.32589C27.5 6.87025 26.5819 5.56844 25.1989 5.06287L18.7886 2.7197Z" fill="white"/>
<path fill-rule="evenodd" clip-rule="evenodd" d="M7.90983 11.7983C8.28534 11.4277 8.89415 11.4277 9.26965 11.7983L11.8338 14.329C12.2093 14.6996 12.2093 15.3004 11.8338 15.671L9.26965 18.2017C8.89415 18.5723 8.28534 18.5723 7.90983 18.2017C7.53433 17.8311 7.53433 17.2302 7.90983 16.8596L8.83249 15.949H3.46154C2.9305 15.949 2.5 15.5241 2.5 15C2.5 14.4759 2.9305 14.051 3.46154 14.051H8.83249L7.90983 13.1404C7.53433 12.7698 7.53433 12.1689 7.90983 11.7983Z" fill="white"/>
</svg>
