<svg width="30" height="30" viewBox="0 0 30 30" fill="none" xmlns="http://www.w3.org/2000/svg">
<path d="M27.1174 13.597C26.9899 12.3215 26.097 11.1735 24.949 10.7909C24.949 10.4082 24.949 9.89802 24.8215 9.38782C24.6939 8.11231 23.6735 6.96435 22.398 6.70925C22.398 6.45414 22.398 6.07149 22.2705 5.68884C22.1429 4.03067 20.7399 2.75516 19.0817 2.62761C17.9337 2.62761 16.2756 2.50006 15.0001 2.50006C13.7246 2.50006 12.0664 2.62761 10.9184 2.62761C9.26027 2.75516 7.8572 4.03067 7.72965 5.68884C7.72965 6.07149 7.72965 6.32659 7.6021 6.70925C6.32659 7.0919 5.30618 8.11231 5.17863 9.38782C5.17863 9.89802 5.05108 10.4082 5.05108 10.7909C3.90312 11.1735 3.13782 12.3215 2.88271 13.597C2.75516 15.1276 2.50006 17.1684 2.50006 18.8266C2.50006 20.4848 2.75516 22.5256 2.88271 24.0562C3.01027 25.7143 4.41333 26.9899 6.07149 27.1174C8.62251 27.245 12.1939 27.5001 15.0001 27.5001C17.8062 27.5001 21.3776 27.245 23.9286 27.1174C25.5868 26.9899 26.9899 25.7143 27.1174 24.0562C27.245 22.5256 27.5001 20.4848 27.5001 18.8266C27.5001 17.1684 27.245 15.1276 27.1174 13.597ZM11.046 4.66843C12.1939 4.66843 13.7246 4.54088 15.0001 4.54088C16.2756 4.54088 17.8062 4.66843 18.9541 4.66843C19.7195 4.66843 20.2297 5.30618 20.3572 5.94394C20.3572 6.19904 20.3572 6.32659 20.3572 6.58169C18.699 6.58169 16.6582 6.45414 15.0001 6.45414C13.3419 6.45414 11.3011 6.45414 9.64292 6.58169C9.64292 6.32659 9.64292 6.19904 9.64292 5.94394C9.77047 5.17863 10.2807 4.66843 11.046 4.66843ZM17.5511 19.847H16.0205V21.3776C16.0205 21.8878 15.6378 22.398 15.0001 22.398C14.3623 22.398 13.9797 22.0154 13.9797 21.3776V19.847H12.449C11.9388 19.847 11.4286 19.4643 11.4286 18.8266C11.4286 18.1888 11.8113 17.8062 12.449 17.8062H13.9797V16.2756C13.9797 15.7654 14.3623 15.2552 15.0001 15.2552C15.6378 15.2552 16.0205 15.6378 16.0205 16.2756V17.8062H17.5511C18.0613 17.8062 18.5715 18.1888 18.5715 18.8266C18.5715 19.4643 18.0613 19.847 17.5511 19.847ZM15.0001 10.1531C12.5766 10.1531 9.51537 10.2807 7.0919 10.4082C7.0919 10.1531 7.0919 9.89802 7.21945 9.51537C7.347 8.87761 7.8572 8.36741 8.62251 8.36741C10.5358 8.23986 13.0868 8.23986 15.1276 8.23986C17.1684 8.23986 19.7195 8.36741 21.6327 8.36741C22.398 8.36741 22.9082 8.87761 23.0358 9.51537C23.0358 9.77047 23.1633 10.1531 23.1633 10.4082C20.4848 10.4082 17.4235 10.1531 15.0001 10.1531Z" fill="black"/>
</svg>
