<svg width="18" height="18" viewBox="0 0 18 18" fill="none" xmlns="http://www.w3.org/2000/svg">
<path fill-rule="evenodd" clip-rule="evenodd" d="M10.959 7.32282C11.1857 7.54813 11.1857 7.91341 10.959 8.13872L7.86219 11.2156C7.63544 11.4409 7.26779 11.4409 7.04104 11.2156C6.81428 10.9903 6.81428 10.625 7.04104 10.3997L10.1378 7.32282C10.3646 7.09752 10.7322 7.09752 10.959 7.32282Z" fill="black"/>
<path fill-rule="evenodd" clip-rule="evenodd" d="M7.04103 7.32282C7.26779 7.09752 7.63544 7.09752 7.86219 7.32282L10.959 10.3997C11.1857 10.625 11.1857 10.9903 10.959 11.2156C10.7322 11.4409 10.3646 11.4409 10.1378 11.2156L7.04103 8.13872C6.81428 7.91341 6.81428 7.54813 7.04103 7.32282Z" fill="black"/>
<path fill-rule="evenodd" clip-rule="evenodd" d="M6.72624 1.65016C6.96708 1.25833 7.38949 1 7.86595 1H10.1341C10.6105 1 11.0329 1.25833 11.2738 1.65016L11.6985 2.34119C12.1181 2.37382 12.5161 2.40893 12.8634 2.44161C13.8748 2.53676 14.6628 3.33818 14.7422 4.34139C14.8489 5.68964 15 7.88298 15 9.50828C15 11.0422 14.8656 12.7838 14.7606 13.912C14.6687 14.9 13.8859 15.6754 12.8942 15.7691C11.8166 15.8709 10.2148 16 9 16C7.78516 16 6.18343 15.8709 5.10584 15.7691C4.11411 15.6754 3.33129 14.9 3.23937 13.912C3.1344 12.7838 3 11.0422 3 9.50828C3 7.88298 3.15111 5.68964 3.25779 4.34139C3.33717 3.33818 4.12518 2.53676 5.13659 2.44161C5.48395 2.40893 5.88188 2.37382 6.3015 2.34119L6.72624 1.65016ZM6.01831 3.52167C5.74372 3.5446 5.48316 3.56801 5.24606 3.59032C4.79956 3.63232 4.45091 3.98446 4.41551 4.43183C4.30889 5.77939 4.16129 7.9327 4.16129 9.50828C4.16129 10.9881 4.2917 12.6876 4.39573 13.8058C4.43605 14.2392 4.77728 14.579 5.21576 14.6205C6.2908 14.722 7.84489 14.8462 9 14.8462C10.1551 14.8462 11.7092 14.722 12.7842 14.6205C13.2227 14.579 13.5639 14.2392 13.6043 13.8058C13.7083 12.6876 13.8387 10.9881 13.8387 9.50828C13.8387 7.9327 13.6911 5.77939 13.5845 4.43183C13.5491 3.98446 13.2004 3.63232 12.7539 3.59032C12.5168 3.56801 12.2563 3.5446 11.9817 3.52167C11.9514 3.68523 11.8941 3.8413 11.8141 3.98207C11.5953 4.36671 11.1819 4.67299 10.6502 4.67299H7.34982C6.81813 4.67299 6.40468 4.36671 6.18593 3.98207C6.10588 3.8413 6.04857 3.68523 6.01831 3.52167ZM7.86595 2.15385C7.8247 2.15385 7.76366 2.17616 7.71732 2.25154L7.20119 3.09126C7.19359 3.10362 7.18714 3.11592 7.18168 3.1281C7.14005 3.22099 7.14869 3.32952 7.19697 3.41442C7.24305 3.49544 7.30047 3.51915 7.34982 3.51915H10.6502C10.6995 3.51915 10.757 3.49544 10.803 3.41442C10.8513 3.32952 10.8599 3.22099 10.8183 3.1281C10.8129 3.11592 10.8064 3.10362 10.7988 3.09126L10.2827 2.25154C10.2363 2.17616 10.1753 2.15385 10.1341 2.15385H7.86595Z" fill="black"/>
</svg>
