<svg width="18" height="18" viewBox="0 0 18 18" fill="none" xmlns="http://www.w3.org/2000/svg">
<path fill-rule="evenodd" clip-rule="evenodd" d="M11.5207 1.68369C12.4323 0.772103 13.9103 0.772105 14.8219 1.68369L15.8163 2.67814C16.7279 3.58973 16.7279 5.0677 15.8163 5.97928L6.47928 15.3163C6.04152 15.7541 5.4478 16 4.82871 16H2.13662C1.78502 16 1.5 15.715 1.5 15.3634V12.6713C1.5 12.0522 1.74593 11.4585 2.18369 11.0207L11.5207 1.68369ZM13.9215 2.584C13.5072 2.16964 12.8354 2.16964 12.421 2.584L10.6763 4.32871L13.1713 6.82369L14.916 5.07897C15.3304 4.66462 15.3304 3.99281 14.916 3.57846L13.9215 2.584ZM12.271 7.724L9.776 5.22902L3.084 11.921C2.88502 12.12 2.77323 12.3899 2.77323 12.6713V14.7268H4.82871C5.11011 14.7268 5.37999 14.615 5.57897 14.416L12.271 7.724Z" fill="white"/>
</svg>
