<svg width="30" height="30" viewBox="0 0 30 30" fill="none" xmlns="http://www.w3.org/2000/svg">
<path fill-rule="evenodd" clip-rule="evenodd" d="M15.8957 4.74428C15.3543 4.37147 14.6457 4.37147 14.1043 4.74428L5.1792 10.8901C4.76284 11.1768 4.50933 11.6389 4.49059 12.135C4.4258 13.8499 4.35713 16.8531 4.54573 18.9847C4.688 20.5927 5.0667 22.7183 5.37429 24.282C5.51714 25.0082 6.14922 25.5355 6.90046 25.5355H11.0554C11.2324 25.5355 11.3759 25.3889 11.3759 25.2081V19.9692C11.3759 18.7034 12.3804 17.6772 13.6195 17.6772H16.7614C18.0005 17.6772 19.005 18.7034 19.005 19.9692V25.2081C19.005 25.3889 19.1485 25.5355 19.3255 25.5355H23.0995C23.8508 25.5355 24.4829 25.0082 24.6257 24.282C24.9333 22.7183 25.312 20.5927 25.4543 18.9847C25.6429 16.8531 25.5742 13.8499 25.5094 12.135C25.4907 11.6389 25.2372 11.1768 24.8208 10.8901L15.8957 4.74428ZM13.0294 3.11523C14.2205 2.29505 15.7795 2.29504 16.9706 3.11523L25.8957 9.26109C26.8072 9.88874 27.388 10.9207 27.4311 12.0592C27.4958 13.7722 27.5705 16.8899 27.3695 19.1615C27.2172 20.8834 26.8201 23.0982 26.5111 24.6691C26.1826 26.3389 24.7405 27.5001 23.0995 27.5001H19.3255C18.0864 27.5001 17.0819 26.4739 17.0819 25.2081V19.9692C17.0819 19.7884 16.9384 19.6418 16.7614 19.6418H13.6195C13.4425 19.6418 13.299 19.7884 13.299 19.9692V25.2081C13.299 26.4739 12.2945 27.5001 11.0554 27.5001H6.90046C5.25951 27.5001 3.81736 26.3389 3.48891 24.6691C3.1799 23.0982 2.7828 20.8834 2.63046 19.1615C2.42947 16.8899 2.50423 13.7722 2.56894 12.0592C2.61196 10.9207 3.19284 9.88874 4.10432 9.26109L13.0294 3.11523Z" fill="white"/>
</svg>
